<?xml version="1.0" standalone="no"?>
<!DOCTYPE svg PUBLIC "-//W3C//DTD SVG 20010904//EN"
 "http://www.w3.org/TR/2001/REC-SVG-20010904/DTD/svg10.dtd">
<svg version="1.0" xmlns="http://www.w3.org/2000/svg"
 width="128.000000pt" height="128.000000pt" viewBox="0 0 128.000000 128.000000"
 preserveAspectRatio="xMidYMid meet">
<metadata>
Created by potrace 1.16, written by Peter Selinger 2001-2019
</metadata>
<g transform="translate(0.000000,128.000000) scale(0.100000,-0.100000)"
fill="#000000" stroke="none">
<path d="M479 1251 l-29 -29 0 -176 0 -176 -56 0 c-70 0 -94 -12 -94 -49 0
-22 32 -65 145 -195 l145 -166 48 0 c56 0 54 -2 231 204 144 168 148 206 22
206 l-51 0 0 148 c0 250 -9 262 -202 262 l-130 0 -29 -29z"/>
<path d="M72 380 c-57 -35 -72 -72 -72 -180 0 -108 15 -145 72 -180 32 -19 52
-20 568 -20 516 0 536 1 568 20 57 35 72 72 72 180 0 108 -15 145 -72 180 -32
19 -52 20 -568 20 -516 0 -536 -1 -568 -20z m1085 -103 c12 -12 17 -34 18 -77
0 -102 39 -95 -523 -98 -541 -2 -530 -4 -546 61 -13 52 2 108 34 124 19 10
133 12 512 11 449 -3 489 -4 505 -21z"/>
<path d="M927 268 c-26 -21 -38 -63 -26 -98 13 -37 36 -50 83 -50 49 0 76 28
76 80 0 53 -27 80 -78 80 -21 0 -46 -6 -55 -12z"/>
</g>
</svg>
