<?xml version="1.0" standalone="no"?>
<!DOCTYPE svg PUBLIC "-//W3C//DTD SVG 20010904//EN"
 "http://www.w3.org/TR/2001/REC-SVG-20010904/DTD/svg10.dtd">
<svg version="1.0" xmlns="http://www.w3.org/2000/svg"
 width="128.000000pt" height="128.000000pt" viewBox="0 0 128.000000 128.000000"
 preserveAspectRatio="xMidYMid meet">
<metadata>
Created by potrace 1.16, written by Peter Selinger 2001-2019
</metadata>
<g transform="translate(0.000000,128.000000) scale(0.100000,-0.100000)"
fill="#000000" stroke="none">
<path d="M485 928 l-271 -273 -76 -155 c-93 -188 -106 -225 -92 -248 28 -45
349 -172 433 -172 40 0 46 5 320 278 l279 277 65 135 c90 187 103 225 89 255
-23 50 -325 175 -424 175 l-53 0 -270 -272z m386 206 c70 -21 260 -94 277
-107 6 -5 12 -15 12 -22 0 -12 -219 -216 -272 -254 -17 -13 -28 -12 -91 8
-119 38 -251 91 -267 107 -13 14 -1 29 113 140 71 69 139 129 150 134 12 5 22
9 23 9 0 1 25 -6 55 -15z m259 -274 c-45 -114 -92 -192 -166 -272 -108 -118
-153 -160 -163 -153 -10 6 24 117 54 176 17 33 272 299 287 299 4 0 -1 -22
-12 -50z m-345 -240 c-16 -17 -53 -49 -82 -72 -42 -34 -58 -55 -74 -98 -56
-153 -123 -320 -126 -316 -3 2 18 75 47 161 28 86 50 168 48 182 -3 22 -21 32
-166 90 -89 37 -161 67 -159 69 1 2 72 -20 157 -47 207 -68 208 -68 301 8 77
63 103 75 54 23z"/>
</g>
</svg>
