<?xml version="1.0" standalone="no"?>
<!DOCTYPE svg PUBLIC "-//W3C//DTD SVG 20010904//EN"
 "http://www.w3.org/TR/2001/REC-SVG-20010904/DTD/svg10.dtd">
<svg version="1.0" xmlns="http://www.w3.org/2000/svg"
 width="128.000000pt" height="128.000000pt" viewBox="0 0 128.000000 128.000000"
 preserveAspectRatio="xMidYMid meet">
<metadata>
Created by potrace 1.16, written by Peter Selinger 2001-2019
</metadata>
<g transform="translate(0.000000,128.000000) scale(0.100000,-0.100000)"
fill="#000000" stroke="none">
<path d="M105 1115 l-25 -24 0 -371 0 -371 23 -23 c21 -21 35 -23 148 -28 151
-7 192 -22 254 -90 25 -28 45 -54 45 -59 0 -5 11 -9 25 -9 l25 0 0 398 c0 397
0 397 -24 447 -29 60 -76 107 -136 134 -38 17 -66 21 -178 21 -128 0 -134 -1
-157 -25z m323 -202 c38 -13 43 -18 40 -42 -3 -29 1 -28 -123 -14 -38 5 -76
12 -82 16 -19 12 -16 44 5 56 21 13 103 5 160 -16z m0 -160 c38 -13 43 -18 40
-42 -3 -29 1 -28 -123 -14 -38 5 -76 12 -82 16 -19 12 -16 44 5 56 21 13 103
5 160 -16z m0 -160 c38 -13 43 -18 40 -42 -3 -29 1 -28 -123 -14 -38 5 -76 12
-82 16 -19 12 -16 44 5 56 21 13 103 5 160 -16z"/>
<path d="M840 1119 c-60 -27 -107 -74 -136 -134 -24 -50 -24 -50 -24 -447 l0
-398 25 0 c14 0 25 4 25 9 0 5 20 31 45 59 62 68 103 83 254 90 113 5 127 7
148 28 l23 23 0 371 0 371 -25 24 c-23 24 -29 25 -157 25 -112 0 -140 -4 -178
-21z m171 -189 c21 -12 25 -45 7 -57 -7 -4 -44 -11 -83 -16 -123 -14 -120 -15
-123 14 -4 30 26 47 103 59 73 11 75 11 96 0z m0 -160 c21 -12 25 -45 7 -57
-7 -4 -44 -11 -83 -16 -123 -14 -120 -15 -123 14 -4 30 26 47 103 59 73 11 75
11 96 0z m0 -160 c21 -12 25 -45 7 -57 -7 -4 -44 -11 -83 -16 -123 -14 -120
-15 -123 14 -4 30 26 47 103 59 73 11 75 11 96 0z"/>
</g>
</svg>
