<?xml version="1.0" standalone="no"?>
<!DOCTYPE svg PUBLIC "-//W3C//DTD SVG 20010904//EN"
 "http://www.w3.org/TR/2001/REC-SVG-20010904/DTD/svg10.dtd">
<svg version="1.0" xmlns="http://www.w3.org/2000/svg"
 width="128.000000pt" height="128.000000pt" viewBox="0 0 128.000000 128.000000"
 preserveAspectRatio="xMidYMid meet">
<metadata>
Created by potrace 1.16, written by Peter Selinger 2001-2019
</metadata>
<g transform="translate(0.000000,128.000000) scale(0.100000,-0.100000)"
fill="#000000" stroke="none">
<path d="M575 1161 c-66 -38 -485 -461 -514 -518 -27 -55 -28 -144 -2 -214 42
-109 207 -286 332 -353 38 -21 71 -30 121 -34 118 -8 133 2 376 241 116 116
212 206 212 200 0 -6 -18 -31 -41 -56 -24 -28 -42 -60 -46 -81 -5 -31 -1 -40
30 -71 28 -28 43 -35 74 -35 68 0 78 22 76 154 -1 61 -2 164 -3 230 -1 87 -6
131 -19 166 -49 128 -226 311 -363 375 -78 36 -166 35 -233 -4z m230 -71 c33
-15 85 -48 116 -73 83 -67 196 -224 175 -244 -13 -13 -261 -15 -338 -4 -81 13
-93 22 -134 104 -58 114 -51 212 18 242 42 19 86 12 163 -25z m-249 -257 c41
-86 177 -219 272 -266 41 -20 96 -40 124 -43 l50 -7 -164 -165 c-196 -198
-230 -222 -308 -222 -84 0 -164 44 -265 145 -129 129 -170 235 -130 333 10 23
85 106 198 220 l182 183 7 -60 c4 -32 19 -86 34 -118z"/>
</g>
</svg>
