<?xml version="1.0" standalone="no"?>
<!DOCTYPE svg PUBLIC "-//W3C//DTD SVG 20010904//EN"
 "http://www.w3.org/TR/2001/REC-SVG-20010904/DTD/svg10.dtd">
<svg version="1.0" xmlns="http://www.w3.org/2000/svg"
 width="128.000000pt" height="128.000000pt" viewBox="0 0 128.000000 128.000000"
 preserveAspectRatio="xMidYMid meet">
<metadata>
Created by potrace 1.16, written by Peter Selinger 2001-2019
</metadata>
<g transform="translate(0.000000,128.000000) scale(0.100000,-0.100000)"
fill="#000000" stroke="none">
<path d="M583 817 c-354 -353 -423 -427 -423 -450 0 -32 22 -44 54 -31 32 13
876 869 876 888 0 12 -10 16 -42 16 l-43 0 -422 -423z"/>
<path d="M1083 1171 c-32 -27 -235 -226 -451 -443 -370 -372 -392 -396 -392
-430 0 -43 19 -61 62 -60 28 1 69 38 326 294 376 375 580 591 588 623 8 32
-19 65 -52 65 -13 0 -48 -21 -81 -49z"/>
<path d="M767 652 c-367 -367 -438 -443 -435 -463 2 -18 10 -25 33 -27 28 -3
64 30 453 422 417 420 422 425 422 465 0 32 -4 41 -18 41 -9 0 -211 -194 -455
-438z"/>
<path d="M85 228 c-29 -78 -45 -136 -45 -160 0 -25 3 -28 34 -28 31 0 67 9
129 32 34 13 35 42 4 89 -24 36 -81 79 -104 79 -7 0 -16 -6 -18 -12z"/>
</g>
</svg>
