<?xml version="1.0" standalone="no"?>
<!DOCTYPE svg PUBLIC "-//W3C//DTD SVG 20010904//EN"
 "http://www.w3.org/TR/2001/REC-SVG-20010904/DTD/svg10.dtd">
<svg version="1.0" xmlns="http://www.w3.org/2000/svg"
 width="128.000000pt" height="128.000000pt" viewBox="0 0 128.000000 128.000000"
 preserveAspectRatio="xMidYMid meet">
<metadata>
Created by potrace 1.16, written by Peter Selinger 2001-2019
</metadata>
<g transform="translate(0.000000,128.000000) scale(0.100000,-0.100000)"
fill="#000000" stroke="none">
<path d="M382 944 c-134 -97 -246 -183 -249 -190 -3 -8 37 -143 89 -301 l94
-288 319 0 319 0 94 288 c52 158 92 293 89 301 -6 15 -473 357 -496 363 -9 2
-123 -74 -259 -173z m477 -57 c113 -82 208 -151 210 -153 3 -2 -33 -121 -80
-264 l-84 -260 -270 0 -270 0 -84 260 c-47 143 -83 262 -80 264 35 34 435 313
442 309 6 -3 103 -73 216 -156z"/>
</g>
</svg>
