<?xml version="1.0" standalone="no"?>
<!DOCTYPE svg PUBLIC "-//W3C//DTD SVG 20010904//EN"
 "http://www.w3.org/TR/2001/REC-SVG-20010904/DTD/svg10.dtd">
<svg version="1.0" xmlns="http://www.w3.org/2000/svg"
 width="128.000000pt" height="128.000000pt" viewBox="0 0 128.000000 128.000000"
 preserveAspectRatio="xMidYMid meet">
<metadata>
Created by potrace 1.16, written by Peter Selinger 2001-2019
</metadata>
<g transform="translate(0.000000,128.000000) scale(0.100000,-0.100000)"
fill="#000000" stroke="none">
<path d="M93 1254 c-24 -14 -54 -44 -68 -68 l-25 -43 0 -503 0 -503 25 -43
c15 -26 43 -54 69 -69 l43 -25 503 0 503 0 43 25 c26 15 54 43 69 69 l26 44
-3 376 -3 376 -192 192 -192 192 -66 4 -65 4 0 -121 c0 -172 19 -161 -274
-161 -286 0 -266 -12 -266 162 l0 118 -42 0 c-28 0 -58 -9 -85 -26z m948 -583
c17 -21 19 -41 19 -211 0 -170 -2 -190 -19 -211 l-19 -24 -382 0 -382 0 -19
24 c-17 21 -19 41 -19 208 0 192 5 217 43 233 12 5 188 8 390 7 l369 -2 19
-24z"/>
<path d="M376 584 c-9 -8 -16 -22 -16 -29 0 -7 7 -21 16 -29 23 -24 505 -24
528 0 20 20 20 38 0 58 -23 24 -505 24 -528 0z"/>
<path d="M372 388 c-16 -16 -15 -43 2 -57 9 -8 89 -11 271 -9 233 3 259 5 269
20 8 13 8 23 0 35 -10 16 -36 18 -270 21 -194 2 -263 -1 -272 -10z"/>
<path d="M586 1204 c-11 -28 -6 -130 6 -142 7 -7 31 -12 55 -12 32 0 45 5 53
19 14 27 13 124 -2 139 -18 18 -105 15 -112 -4z"/>
</g>
</svg>
