<?xml version="1.0" standalone="no"?>
<!DOCTYPE svg PUBLIC "-//W3C//DTD SVG 20010904//EN"
 "http://www.w3.org/TR/2001/REC-SVG-20010904/DTD/svg10.dtd">
<svg version="1.0" xmlns="http://www.w3.org/2000/svg"
 width="128.000000pt" height="128.000000pt" viewBox="0 0 128.000000 128.000000"
 preserveAspectRatio="xMidYMid meet">
<metadata>
Created by potrace 1.16, written by Peter Selinger 2001-2019
</metadata>
<g transform="translate(0.000000,128.000000) scale(0.100000,-0.100000)"
fill="#000000" stroke="none">
<path d="M371 659 c-149 -248 -271 -454 -271 -458 0 -8 536 -21 873 -21 108 0
197 3 197 6 0 14 -513 924 -521 924 -4 0 -130 -203 -278 -451z m495 -51 l203
-363 -212 -2 c-117 -2 -312 0 -434 5 l-222 7 221 368 c140 232 225 364 231
358 5 -5 101 -173 213 -373z"/>
</g>
</svg>
